<svg height="512pt" viewBox="-15 0 512 512.00001" width="512pt" xmlns="http://www.w3.org/2000/svg"><g fill="#a4c2f7"><path d="m426.667969 452.265625-26.539063 39.765625c-4.738281 7.152344-12.753906 11.449219-21.332031 11.433594h-344.664063c-6.582031.019531-12.914062-2.519532-17.664062-7.082032l56.152344-49.917968v-2.644532l4.179687-.085937h342.953125zm0 0"/><path d="m419.753906 443.734375h-342.953125l-4.179687.085937-4.355469-341.421874-59.730469 59.734374v-93.867187l59.730469-59.730469zm0 0"/><path d="m72.621094 443.820312v2.644532l-56.152344 49.917968c-5.054688-4.835937-7.917969-11.519531-7.933594-18.515624v-315.734376l59.730469-59.734374zm0 0"/></g><path d="m457.214844 452.265625h-303.613282c-69.378906-31.488281-82.773437-174.761719-85.078124-247.464844-.855469-25.769531-.257813-42.667969-.257813-42.667969v-59.734374h349.867187v59.734374s-6.398437 185.34375 52.738282 262.914063c3.894531 5.152344 4.527344 12.074219 1.632812 17.851563-2.898437 5.777343-8.824218 9.410156-15.289062 9.367187zm0 0" fill="#d4e1f4"/><path d="m426.582031 452.265625h-272.980469c-69.378906-31.488281-82.773437-174.761719-85.078124-247.464844-.855469-25.769531-.257813-42.667969-.257813-42.667969v-59.734374h319.234375v59.734374s-6.402344 185.34375 52.734375 262.914063c3.898437 5.152344 4.53125 12.074219 1.632813 17.851563-2.898438 5.777343-8.824219 9.410156-15.285157 9.367187zm0 0" fill="#f4f4f4"/><path d="m153.601562 452.265625h-68.269531c-9.414062-.027344-17.035156-7.652344-17.066406-17.066406v-230.398438h.257813c2.304687 72.703125 15.699218 215.976563 85.078124 247.464844zm0 0" fill="#a4c2f7"/><path d="m392.535156 8.535156h-324.269531v93.863282h349.867187v-68.265626c0-14.136718-11.460937-25.597656-25.597656-25.597656zm0 0" fill="#e64c3c"/><path d="m410.625 16.042969-86.359375 86.355469h-51.199219l93.867188-93.863282h25.601562c6.789063-.003906 13.296875 2.699219 18.089844 7.507813zm0 0" fill="#e3e7f2"/><path d="m366.933594 8.535156-93.867188 93.863282h-51.199218l93.867187-93.863282zm0 0" fill="#a4c2f7"/><path d="m315.734375 8.535156-93.867187 93.863282h-51.199219l93.867187-93.863282zm0 0" fill="#e3e7f2"/><path d="m264.535156 8.535156-93.867187 93.863282h-51.199219l93.863281-93.863282zm0 0" fill="#a4c2f7"/><path d="m213.332031 8.535156-93.863281 93.863282h-51.203125l93.867187-93.863282zm0 0" fill="#e3e7f2"/><path d="m162.132812 8.535156-93.867187 93.863282v-51.199219l42.667969-42.664063zm0 0" fill="#a4c2f7"/><path d="m110.933594 8.535156-42.667969 42.664063v-42.664063zm0 0" fill="#e3e7f2"/><path d="m418.132812 34.132812v25.601563l-42.664062 42.664063h-51.203125l86.359375-86.355469c4.808594 4.792969 7.507812 11.300781 7.507812 18.089843zm0 0" fill="#a4c2f7"/><path d="m418.132812 59.734375v42.664063h-42.664062zm0 0" fill="#e3e7f2"/><path d="m291.074219 256.957031c14.195312-12.078125 29.316406-23.023437 45.226562-32.734375 7.1875-4.515625 12.007813-11.984375 13.15625-20.394531v-.128906c3.414063-23.101563-18.089843-40.660157-36.429687-29.679688-21.640625 12.988281-42.144532 27.78125-61.292969 44.21875-19.167969-16.441406-39.6875-31.234375-61.347656-44.21875-18.335938-10.980469-39.839844 6.578125-36.429688 29.679688v.128906c1.152344 8.410156 5.972657 15.878906 13.160157 20.394531 15.90625 9.710938 31.027343 20.65625 45.226562 32.734375-22.789062 25.554688-41.644531 54.363281-55.9375 85.476563-8.617188 18.980468 3.261719 41.566406 22.1875 41.566406h4.917969c10.003906-.3125 18.859375-6.554688 22.515625-15.871094 11.75-26.003906 27.140625-50.203125 45.707031-71.867187 18.554687 21.667969 33.929687 45.867187 45.667969 71.867187 3.660156 9.316406 12.515625 15.558594 22.519531 15.871094h4.917969c18.910156 0 30.789062-22.585938 22.1875-41.566406-14.300782-31.113282-33.160156-59.925782-55.953125-85.476563zm0 0" fill="#e3e7f2"/><path d="m8.535156 162.132812v315.734376c.015625 6.996093 2.878906 13.679687 7.933594 18.515624 4.75 4.5625 11.082031 7.101563 17.664062 7.082032h25.601563c-6.582031.019531-12.917969-2.519532-17.664063-7.082032-5.054687-4.835937-7.921874-11.519531-7.9375-18.515624v-409.601563l59.734376-59.730469h-25.601563l-59.730469 59.730469zm0 0" fill="#fff"/><path d="m0 477.867188v-409.601563h17.066406v409.601563zm0 0" fill="#fff"/><path d="m0 477.867188c0 18.851562 15.28125 34.132812 34.132812 34.132812h344.746094c11.414063.011719 22.078125-5.695312 28.402344-15.199219l23.953125-36h26.015625c9.707031.023438 18.589844-5.457031 22.921875-14.144531 4.328125-8.6875 3.355469-19.082031-2.507813-26.816406-56.59375-74.195313-51.066406-255.589844-50.996093-257.707032v-128c0-18.851562-15.28125-34.132812-34.132813-34.132812h-324.269531c-1.117187 0-2.226563.222656-3.257813.65625-1.039062.429688-1.984374 1.058594-2.78125 1.851562l-59.734374 59.734376c-1.59375 1.597656-2.492188 3.765624-2.492188 6.023437v307.199219c0 4.714844 3.820312 8.535156 8.535156 8.535156 4.710938 0 8.53125-3.820312 8.53125-8.535156v-209.796875l42.667969-42.667969v38.84375c-.085937 2.492188-.554687 18.679688.136719 42.300781-.058594.214844-.105469.433594-.136719.65625v230.398438c.007813 3.296875.65625 6.5625 1.910156 9.609375l-43.519531 38.707031c-.671875-1.808594-1.027344-3.71875-1.058594-5.648437v-34.132813c0-4.714844-3.820312-8.535156-8.53125-8.535156-4.714844 0-8.535156 3.820312-8.535156 8.535156zm393.039062 9.464843c-3.15625 4.734375-8.46875 7.585938-14.160156 7.601563h-344.746094c-.960937-.015625-1.921874-.113282-2.867187-.289063l41.773437-37.128906c3.75 2.125 7.984376 3.257813 12.292969 3.285156h325.394531zm71.046876-57.132812c1.976562 2.503906 2.3125 5.933593.851562 8.773437-1.410156 2.949219-4.40625 4.808594-7.679688 4.761719h-301.746093c-85.894531-42.035156-78.796875-278.914063-78.710938-281.601563v-51.199218h332.800781v50.910156c-.257812 7.6875-5.804687 189.292969 54.484376 268.355469zm-322.550782-413.132813-64.734375 64.734375v-27.066406l37.664063-37.667969zm51.199219 0-76.800781 76.800782h-27.066406l76.800781-76.800782zm51.199219 0-76.800782 76.800782h-27.066406l76.800782-76.800782zm51.199218 0-76.796874 76.800782h-27.070313l76.800781-76.800782zm51.203126 0-76.800782 76.800782h-27.070312l76.800781-76.800782zm-269.535157 13.535156v-13.535156h13.535157zm332.160157-.855468c.40625 1.429687.621093 2.902344.640624 4.386718v22.066407l-37.667968 37.667969h-27.066406zm.640624 64.121094h-13.535156l13.535156-13.535157zm-12.707031-76.160157-76.160156 76.160157h-27.066406l76.796875-76.800782h22.070312c1.472656.019532 2.941406.234375 4.359375.640625zm-379.828125 54.09375 42.667969-42.667969v69.734376l-42.667969 42.667968zm109.390625 371.933594h-41.125c-4.710937 0-8.53125-3.820313-8.53125-8.535156v-92.695313c9.925781 40.472656 25.4375 78.1875 49.65625 101.230469zm0 0" fill="#428dff"/><path d="m5.292969 417.449219c.480469.246093 1 .421875 1.535156.511719.5625.097656 1.132813.152343 1.707031.171874 2.257813-.03125 4.421875-.917968 6.058594-2.472656.769531-.816406 1.378906-1.773437 1.789062-2.816406 1.289063-3.183594.585938-6.824219-1.789062-9.300781-.816406-.773438-1.773438-1.382813-2.816406-1.792969-1.027344-.4375-2.128906-.667969-3.242188-.683594-2.261718.035156-4.421875.917969-6.058594 2.476563-3.300781 3.363281-3.300781 8.75 0 12.117187l1.277344 1.023438c.476563.324218.992188.582031 1.539063.765625zm0 0" fill="#428dff"/><path d="m357.949219 204.953125c2.382812-14.457031-3.726563-29-15.71875-37.417969-10.023438-6.902344-23.175781-7.238281-33.535157-.855468-19.996093 11.984374-39.039062 25.484374-56.960937 40.390624-17.921875-14.898437-36.964844-28.394531-56.960937-40.371093-10.359376-6.382813-23.511719-6.050781-33.535157.851562-12.023437 8.453125-18.128906 23.054688-15.703125 37.546875 1.492188 10.933594 7.78125 20.632813 17.152344 26.453125 13.082031 7.988281 25.621094 16.828125 37.546875 26.453125-20.804687 24.492188-38.152344 51.722656-51.558594 80.929688-5.617187 12.347656-4.65625 26.691406 2.5625 38.179687 5.839844 9.539063 16.203125 15.375 27.390625 15.421875h4.914063c13.40625-.253906 25.355469-8.515625 30.328125-20.96875 9.953125-22.121094 22.675781-42.890625 37.863281-61.804687 15.191406 18.925781 27.914063 39.703125 37.863281 61.839843 4.980469 12.4375 16.929688 20.683594 30.324219 20.933594h4.917969c11.160156-.085937 21.488281-5.929687 27.304687-15.457031 7.222657-11.484375 8.183594-25.832031 2.5625-38.175781-13.398437-29.210938-30.746093-56.441406-51.550781-80.929688 11.925781-9.628906 24.464844-18.464844 37.546875-26.453125 9.429687-5.835937 15.753906-15.578125 17.246094-26.566406zm-26.054688 11.945313c-16.296875 9.945312-31.792969 21.152343-46.34375 33.511718-1.742187 1.488282-2.816406 3.613282-2.976562 5.898438-.160157 2.285156.605469 4.539062 2.125 6.253906 22.21875 24.925781 40.605469 53.019531 54.550781 83.363281 3.25 7.058594 2.722656 15.285157-1.40625 21.871094-2.714844 4.636719-7.632812 7.535156-13.003906 7.667969h-4.917969c-6.613281-.320313-12.398437-4.558594-14.699219-10.765625-12.046875-26.761719-27.847656-51.664063-46.933594-73.953125-1.621093-1.917969-4.007812-3.027344-6.519531-3.027344-2.515625 0-4.898437 1.109375-6.519531 3.027344-19.085938 22.289062-34.890625 47.191406-46.933594 73.953125-2.3125 6.230469-8.132812 10.472656-14.773437 10.765625h-4.914063c-5.355468-.128906-10.265625-3.011719-12.988281-7.628906-4.121094-6.585938-4.652344-14.804688-1.417969-21.867188 13.957032-30.339844 32.34375-58.433594 54.5625-83.363281 1.519532-1.714844 2.285156-3.96875 2.125-6.253907-.160156-2.285156-1.234375-4.410156-2.976562-5.898437-14.550782-12.359375-30.046875-23.566406-46.34375-33.511719-5.066406-3.226562-8.429688-8.546875-9.175782-14.503906-1.421874-7.933594 1.808594-15.984375 8.320313-20.730469 4.542969-3.230469 10.589844-3.378906 15.285156-.375 21.25 12.722657 41.378907 27.230469 60.167969 43.367188 3.191406 2.730469 7.898438 2.730469 11.09375 0 18.785156-16.132813 38.910156-30.632813 60.160156-43.347657 4.691406-3.007812 10.742188-2.859374 15.28125.375 6.539063 4.777344 9.765625 12.882813 8.296875 20.847657-.757812 5.90625-4.101562 11.167969-9.125 14.367187zm0 0" fill="#428dff"/></svg>